<?xml version="1.0" standalone="no"?>
<!DOCTYPE svg PUBLIC "-//W3C//DTD SVG 20010904//EN"
 "http://www.w3.org/TR/2001/REC-SVG-20010904/DTD/svg10.dtd">
<svg version="1.0" xmlns="http://www.w3.org/2000/svg"
 width="1024.000000pt" height="1024.000000pt" viewBox="0 0 1024.000000 1024.000000"
 preserveAspectRatio="xMidYMid meet">

<g transform="translate(0.000000,1024.000000) scale(0.100000,-0.100000)"
fill="#fa6d42" stroke="none">
<path d="M0 5120 l0 -5120 5120 0 5120 0 0 5120 0 5120 -5120 0 -5120 0 0
-5120z m7030 2329 c308 -29 644 -110 956 -231 90 -35 104 -43 99 -59 -14 -44
-317 -765 -324 -772 -5 -5 -50 10 -101 32 -116 53 -319 122 -435 149 -301 71
-683 81 -910 26 -237 -58 -431 -159 -594 -310 -355 -329 -519 -824 -481 -1456
48 -816 385 -1292 982 -1392 202 -34 601 -16 871 40 l27 6 0 499 0 499 -450 0
-450 0 0 415 0 415 940 0 940 0 -2 -1231 -3 -1232 -130 -39 c-528 -159 -967
-223 -1520 -222 -229 0 -331 4 -430 18 -733 99 -1235 438 -1535 1035 -172 345
-261 746 -276 1261 -34 1083 358 1862 1146 2278 439 232 1051 331 1680 271z
m-3820 -2424 l0 -2375 -505 0 -505 0 0 2375 0 2375 505 0 505 0 0 -2375z"/>
</g>
</svg>
